<?xml version="1.0" encoding="UTF-8"?>
<svg width="22px" height="22px" viewBox="0 0 22 22" version="1.1" xmlns="http://www.w3.org/2000/svg" xmlns:xlink="http://www.w3.org/1999/xlink">
    <title>Female_Icon_Active_22px@1x</title>
    <g id="🔴-Master-Assets" stroke="none" stroke-width="1" fill="none" fill-rule="evenodd">
        <g id="Assets" transform="translate(-481.000000, -1775.000000)" fill="#8A3FFC" fill-rule="nonzero">
            <g id="female-outline" transform="translate(485.000000, 1775.000000)">
                <path d="M7.5,0 C3.35786438,0 0,3.35786438 0,7.5 C0,11.6421356 3.35786438,15 7.5,15 C11.6421356,15 15,11.6421356 15,7.5 C15,3.35786438 11.6421356,0 7.5,0 Z M7.5,1.42857143 C10.8531574,1.42857143 13.5714286,4.14684259 13.5714286,7.5 C13.5714286,10.8531574 10.8531574,13.5714286 7.5,13.5714286 C4.14684259,13.5714286 1.42857143,10.8531574 1.42857143,7.5 C1.42857143,4.14684259 4.14684259,1.42857143 7.5,1.42857143 Z" id="Oval"></path>
                <path d="M7.5,14 C7.91296968,14 8.2486786,14.3179046 8.25661314,14.7129604 L8.25675676,14.7272727 L8.25675676,17.6363636 L10.2432432,17.6363636 C10.6611885,17.6363636 11,17.9619747 11,18.3636364 C11,18.7605163 10.6692074,19.0831457 10.2581358,19.0907711 L10.2432432,19.0909091 L8.25675676,19.0909091 L8.25675676,21.2727273 C8.25675676,21.6743889 7.91794522,22 7.5,22 C7.08703032,22 6.7513214,21.6820954 6.74338686,21.2870396 L6.74324324,21.2727273 L6.74324324,19.0909091 L4.75675676,19.0909091 C4.33881154,19.0909091 4,18.765298 4,18.3636364 C4,17.9667564 4.33079262,17.6441271 4.74186423,17.6365017 L4.75675676,17.6363636 L6.74324324,17.6363636 L6.74324324,14.7272727 C6.74324324,14.3256111 7.08205478,14 7.5,14 Z" id="Shape"></path>
            </g>
        </g>
    </g>
</svg>