<?xml version="1.0" encoding="UTF-8"?>
<svg width="22px" height="22px" viewBox="0 0 22 22" version="1.1" xmlns="http://www.w3.org/2000/svg" xmlns:xlink="http://www.w3.org/1999/xlink">
    <title>Male_Icon_Active_22px@1x</title>
    <g id="🔴-Master-Assets" stroke="none" stroke-width="1" fill="none" fill-rule="evenodd">
        <g id="Assets" transform="translate(-353.000000, -1774.000000)" fill="#8A3FFC" fill-rule="nonzero">
            <g id="male-outline" transform="translate(353.000000, 1774.000000)">
                <path d="M9,4 C4.02943725,4 0,8.02943725 0,13 C0,17.9705627 4.02943725,22 9,22 C13.9705627,22 18,17.9705627 18,13 C18,8.02943725 13.9705627,4 9,4 Z M9,5.71428571 C13.0237889,5.71428571 16.2857143,8.97621111 16.2857143,13 C16.2857143,17.0237889 13.0237889,20.2857143 9,20.2857143 C4.97621111,20.2857143 1.71428571,17.0237889 1.71428571,13 C1.71428571,8.97621111 4.97621111,5.71428571 9,5.71428571 Z" id="Oval"></path>
                <path d="M16.2564103,0 L21.1794872,0 L21.2125279,0.000653104588 L21.2375036,0.00204103312 L21.2514159,0.00313954911 C21.3247683,0.00948229169 21.395365,0.0255033908 21.4619217,0.0499038315 L21.4933857,0.0621849031 L21.5124187,0.0703549684 L21.5163312,0.072108056 C21.5829633,0.102064145 21.6464104,0.141382016 21.7046929,0.190047964 L21.7269786,0.209357921 L21.7476618,0.228546152 L21.7596781,0.24032291 L21.7686185,0.249400817 L21.7879583,0.270027174 L21.7933394,0.276048257 C21.8441225,0.333181403 21.8855231,0.395678603 21.9175735,0.461574721 L21.9296461,0.487581635 L21.9405397,0.513287292 C21.967029,0.578835401 21.9852886,0.64856491 21.9940526,0.72121563 L21.9972388,0.753048713 L21.9987348,0.774596912 L21.9994743,0.791010221 L21.9998443,0.804365607 L22,0.820512821 L22,5.74358974 C22,6.19674646 21.6326439,6.56410256 21.1794872,6.56410256 C20.7317252,6.56410256 20.3677331,6.20544097 20.3591301,5.75973696 L20.3589744,5.74358974 L20.3589744,2.80133333 L15.400703,7.75967736 C15.0802728,8.08010755 14.5607528,8.08010755 14.2403226,7.75967736 C13.9243429,7.44369759 13.9199543,6.93411989 14.2271568,6.61276241 L14.2403226,6.599297 L19.1986154,1.64102564 L16.2564103,1.64102564 C15.8086483,1.64102564 15.4446562,1.28236405 15.4360531,0.836660034 L15.4358974,0.820512821 C15.4358974,0.372750826 15.794559,0.00875873383 16.240263,0.000155713784 L16.2564103,0 Z" id="Shape"></path>
            </g>
        </g>
    </g>
</svg>